<svg xmlns="http://www.w3.org/2000/svg" viewBox="0 0 2172.51 749.89"><defs><style>.cls-1{fill:#3d0115;stroke:#3d0115;}.cls-1,.cls-2,.cls-3,.cls-4,.cls-5{stroke-miterlimit:10;}.cls-2{fill:#601b32;stroke:#601b32;}.cls-3{fill:#871528;stroke:#871528;}.cls-4{fill:#4c0a38;stroke:#4c0a38;}.cls-5{fill:#6d0025;stroke:#6d0025;}</style></defs><title>Asset 2</title><g id="Layer_2" data-name="Layer 2"><g id="Midground"><path class="cls-1" d="M750.5,613.49h-47q-1-166.5-2-333l49-11Z"/><path class="cls-1" d="M706.5,275.49v-29h6v-14h9v-34l29-8v79l-48,12Z"/><path class="cls-2" d="M750.5,613.49h49v-336l-49-8Z"/><path class="cls-2" d="M773.5,227.49h11l.2,42.53,11.8,6.47-46-7v-79l23,11Z"/><polygon class="cls-3" points="852.5 667.49 868.5 660.49 858.5 255.49 845.5 251.49 852.5 667.49"/><polygon class="cls-4" points="845.5 251.49 805.5 264.49 805.5 271.49 792.5 277.49 792.5 655.49 852.5 667.49 845.5 251.49"/><path class="cls-2" d="M862.5,584.49l10-51,109-5q-5,29.5-10,59Z"/><path class="cls-4" d="M874.5,624.49l109,6-15-49-105.88,2.59Z"/><path class="cls-2" d="M860.5,488.49l11-48,108-6-12,54S860.84,488.15,860.5,488.49Z"/><path class="cls-4" d="M872.5,533.49l-12.23-44.55,104.23-7.45q8.5,23.5,17,47Z"/><path class="cls-2" d="M855.5,384.49l8-45,112-13q-5.49,28-11,56Z"/><path class="cls-4" d="M979.5,434.49q-8-29.49-16-59l-108,9q8,28,16,56Z"/><path class="cls-2" d="M852.5,292.49l12-41,109-22-13,54Z"/><path class="cls-4" d="M863.5,339.49q-5.49-23-11-46l108-17,15,50Z"/><path class="cls-3" d="M973.5,229.49l47,8,10.8,376.56-47.8,16.44-15-49q6.51-26.49,13-53-8.49-23.49-17-47l15-47q-8-29.49-16-59l12-49-15-50Q967,253,973.5,229.49Z"/><path class="cls-2" d="M32,373q-1.24-95.75-2.5-191.48H83.24l2.53,491.2-48.25-2.2Z"/><polygon class="cls-4" points="29.5 181.49 2.5 201.49 0.5 633.49 36.9 632.95 29.5 181.49"/><path class="cls-3" d="M103.5,382.49l-43-13,3,273h43Z"/><path class="cls-1" d="M27.5,382.49l33-13,3,273h-36Z"/><path class="cls-4" d="M242.5,685.49q-1-292-2-584l60,61,9,518Z"/><polygon class="cls-1" points="240.5 101.49 327.51 139.48 328.16 170.32 300.5 162.49 240.5 101.49"/><polygon class="cls-2" points="300.5 162.49 328.5 170.49 332.07 744.37 306.01 743.07 300.5 162.49"/><path class="cls-1" d="M316.5,438.49q-2-120.49-4-241l-25,15q.78,264.65,1.57,529.27l28.43-1.27Q317,589.5,316.5,438.49Z"/><polygon class="cls-3" points="312.5 197.49 326.87 211.86 332.07 744.37 317.5 740.49 312.5 197.49"/><path class="cls-4" d="M1829.5,627.49q2.51-313,5-626l-60,61q-4,280.5-8,561Z"/><polygon class="cls-5" points="1834.5 1.49 1747.5 39.48 1746.84 70.32 1774.5 62.49 1834.5 1.49"/><polygon class="cls-3" points="1774.5 62.49 1746.5 70.49 1742.93 644.37 1769 643.07 1774.5 62.49"/><polygon class="cls-3" points="1614.2 630.09 1597.98 623.61 1594.96 218.5 1607.82 214.08 1614.2 630.09"/><polygon class="cls-4" points="1607.82 214.08 1648.22 225.79 1648.45 232.79 1661.63 238.37 1673.78 616.17 1614.2 630.09 1607.82 214.08"/><path class="cls-4" d="M2005.67,449.64q1.26-95.74,2.5-191.48h-53.74l-2.53,491.21,48.25-2.21Z"/><polygon class="cls-1" points="2008.17 258.17 2035.17 278.17 2037.17 710.16 2000.77 709.62 2008.17 258.17"/><path class="cls-3" d="M1835,733.47q2.67-128.44,5.33-256.88l260.85-25.51,3.24,291.12Z"/><path class="cls-4" d="M2172,473.74,2101.62,451V710.82l68.25.85Z"/></g></g></svg>