<svg xmlns="http://www.w3.org/2000/svg" viewBox="0 0 2075.02 1074"><defs><style>.cls-1,.cls-4{fill:#4c0a38;}.cls-1{stroke:#4c0a38;}.cls-1,.cls-2,.cls-5,.cls-6,.cls-7{stroke-miterlimit:10;}.cls-2,.cls-3,.cls-7{fill:#871528;}.cls-2{stroke:#871528;}.cls-5,.cls-8{fill:#601b32;}.cls-5,.cls-7{stroke:#601b32;}.cls-6{fill:#3d0115;stroke:#3d0115;}</style></defs><title>Asset 1</title><g id="Layer_2" data-name="Layer 2"><g id="Foreground"><path class="cls-1" d="M764.51,927.5q-8-382-16-764l51-37q10,421,20,842Z"/><path class="cls-2" d="M799,126l67,45q5.75,395.25,11.5,790.5l-58,7Q809.26,547.25,799,126Z"/><path class="cls-3" d="M753,947c-1.77-97.66-15.77-682.36-22-877L637,0l12,947Z"/><path class="cls-4" d="M561,222l22-19V52L637,0l12,947-92-6Q559,581.5,561,222Z"/><polygon class="cls-3" points="743.01 642 807.01 645 807.01 949.28 753.01 949.28 743.01 642"/><path class="cls-1" d="M796.51,643.5l84-13L882,944l-84-1Z"/><path class="cls-2" d="M880.51,630.5,1049,640V944H882Z"/><path class="cls-1" d="M1266.51,815.5l-12-395,176-45q6.49,237,13,474l-176.77-9.68Z"/><path class="cls-2" d="M1430.51,375.5l89,17,11.34,430.81-87.34,26.19Q1437,612.5,1430.51,375.5Z"/><path class="cls-1" d="M1254.51,420.5l54-47q4-22,8-44l85-27v47l29,26Z"/><path class="cls-2" d="M1438.51,356.5l-37-7v-47l32,12Q1436,335.5,1438.51,356.5Z"/><path class="cls-5" d="M1401.51,349.5l36,8,78,33-85-15Z"/><path class="cls-6" d="M1307.51,374.5l94-25,28,27-174,44Z"/><path class="cls-5" d="M1712.51,310.5q-1-32-2-64l36,9,3,53Z"/><polygon class="cls-7" points="1733.51 299.5 1799.51 312.5 1812.86 815.38 1747.05 815.71 1733.51 299.5"/><path class="cls-1" d="M1648.51,311.5q-.49-23.5-1-47l20.31-5.8,42.69-12.2,2.28,59-17.28,5-19-5Z"/><path class="cls-2" d="M1667.51,252.5l24-9v-8l7-3q2.51-6.5,5-13l3,5c.33,2.33.67,4.67,1,7l4,1,2,9,9,2,3,6-15-3-43,12Z"/><path class="cls-6" d="M1627.51,323.5v-7l49-11q10,257.51,20,515l-97,2-11-213,4-6h11v-125h5l-5-150Z"/><polygon class="cls-7" points="1676.51 305.5 1695.51 310.5 1708.51 673.5 1743.65 673.5 1747.51 815.5 1696.51 820.5 1676.51 305.5"/><path class="cls-6" d="M1714.51,819.5q-9.49-254.5-19-509l38-11q7,258,14,516Z"/><path class="cls-1" d="M1695.51,310.5l17-5q8,257,16,514l-13.71-.21Z"/><polygon class="cls-5" points="1710.51 246.5 1705.51 238.5 1703.51 219.5 1698.51 224.5 1698.51 232.5 1691.51 235.5 1691.51 243.5 1667.51 252.5 1667.51 258.5 1710.51 246.5"/><path class="cls-1" d="M.81,928.43.51,382.5l21-35q1,298,2,596H.51Z"/><polygon class="cls-2" points="21.51 347.5 185.51 347.5 185.51 943.5 23.51 943.5 21.51 347.5"/><path class="cls-8" d="M723,934q-2.5-135.5-5-271L473.42,636.09l-3,307.11Z"/><path class="cls-4" d="M407,660l66-24V910.11L409,911Q408,785.5,407,660Z"/><path class="cls-6" d="M2074.21,1058.43l.3-545.93-21-35q-1,298-2,596h23Z"/><polygon class="cls-5" points="2053.51 477.5 1889.51 477.5 1889.51 1073.5 2051.51 1073.5 2053.51 477.5"/></g></g></svg>