<svg xmlns="http://www.w3.org/2000/svg" viewBox="0 0 2598 571.05"><defs><style>.cls-1{fill:#2d0414;stroke:#2d0414;}.cls-1,.cls-2,.cls-4,.cls-5,.cls-6,.cls-7,.cls-8,.cls-9{stroke-miterlimit:10;}.cls-2{fill:#0d0d0d;stroke:#0d0d0d;}.cls-3,.cls-8{fill:#2d112c;}.cls-4{fill:#3d0115;stroke:#3d0115;}.cls-5{fill:#4c0a38;stroke:#4c0a38;}.cls-6{fill:#070104;stroke:#020001;}.cls-7{fill:#522037;stroke:#522037;}.cls-8{stroke:#2d112c;}.cls-9{fill:#8c2048;stroke:#8c2048;}</style></defs><title>Asset 3</title><g id="Layer_2" data-name="Layer 2"><g id="Background"><g id="Background-2" data-name="Background"><path class="cls-1" d="M2552.5,110.5h-24v458c7.7.7,15.3,1.3,23,2Q2552,340.55,2552.5,110.5Z"/><path class="cls-2" d="M2552.5,134.5h39q1.5,215,3,430c-13.7-.7-27.3-1.3-41-2Q2553,348.45,2552.5,134.5Z"/><path class="cls-1" d="M42.5,79.5h24v458c-7.7.7-15.3,1.3-23,2Q43.05,309.55,42.5,79.5Z"/><path class="cls-2" d="M42.5,103.5H3.5q-1.5,215-3,430c13.7-.7,27.3-1.3,41-2Q41.95,317.45,42.5,103.5Z"/><path class="cls-3" d="M32,502V324l6-7V283H54v31l17,10v13l17,8L77.5,487.5C62.3,492.3,47.2,497.2,32,502Z"/><polygon class="cls-4" points="22.5 293.5 28.5 300.5 28.5 329.5 48.5 340.5 51.5 444.6 6.5 444.5 5.5 307.5 22.5 293.5"/><polygon class="cls-5" points="26.4 445.6 25 369 17 364 17 347 4 345 4 446 26.4 445.6"/><polygon class="cls-6" points="81.5 341.5 81.5 261.5 96.5 261.5 97.5 480.5 76.7 476.3 81.5 341.5"/><path class="cls-4" d="M67,362.5h35.5q-.3,65.7-.7,131.5l-34.1-7Q67.4,424.75,67,362.5Z"/><path class="cls-7" d="M509.5,188.5c5.7,6,11.3,12,17,18v240c-5.3,0-10.5-.1-15.8-.1q-.75-63.9-1.1-127.9Q509.3,253.4,509.5,188.5Z"/><polygon class="cls-8" points="526.5 206.5 555.5 236.5 554.7 449.3 526.5 446.5 526.5 206.5"/><path class="cls-9" d="M509.5,223.5c5.4-1.3,10.7-2.7,16.1-4l-.1,21.7-16,3.3Z"/><polygon class="cls-7" points="438.5 229.8 441.5 488.5 448.5 486.5 447.5 220.5 438.5 229.8"/><polygon class="cls-8" points="448.5 220.5 457 237 456.5 484.5 449.5 486.5 448.5 220.5"/><path class="cls-7" d="M491.5,238.5l1,230c-10.3,3.7-20.7,7.3-31,11q-1-123-2-246C470.2,235.2,480.8,236.8,491.5,238.5Z"/><polygon class="cls-8" points="459.5 233.5 448.5 238.5 449.4 475 461.5 479.5 459.5 233.5"/><path class="cls-7" d="M551.5,261.5c-10.7-4.3-21.3-8.7-32-13q1.05,112,2,224c10.7-2.3,21.3-4.7,32-7Z"/><polygon class="cls-8" points="519.5 248.5 491.5 264.5 491.5 474.5 521.5 472.5 519.5 248.5"/><path class="cls-8" d="M562.5,458.5q1.5-110,3-220l9-9v230C570.5,459.2,566.5,458.8,562.5,458.5Z"/><polygon class="cls-5" points="1621.5 148.5 1677.5 138.5 1688.5 450.5 1627.5 450.5 1621.5 148.5"/><polygon class="cls-8" points="1677.5 138.5 1705.5 143.5 1716.3 450.9 1688.5 450.5 1677.5 138.5"/><path class="cls-3" d="M1662,141c-.3-9.8-.6-19.5-1-29.3l-1.5-29v-.2h3l2,29,4,4c.7,8,1.3,16,2,24Z"/><path class="cls-7" d="M311.5.5h-24v458c7.7.7,15.3,1.3,23,2Q311,230.55,311.5.5Z"/><path class="cls-8" d="M311.5,24.5h39q1.5,215,3,430c-13.7-.7-27.3-1.3-41-2Q312,238.45,311.5,24.5Z"/><path class="cls-8" d="M1042,448q-.45-111-1-222h-9l-7-6V206h-25v16l-7,4v13h-9q1.05,104.55,2,209Z"/><path class="cls-8" d="M463.5,204.5l14-1v19h5v15c-.7-.3-1.3-.7-2-1v-10h-7l-2,2v6c-1-.7-2-1.3-3-2v-4l-2-3-1,2v4c-.7-.3-1.3-.7-2-1Z"/><path class="cls-3" d="M2573.5,460V282l-6-7V241h-16v31l-17,10v13l-17,8L2528,445.5C2543.2,450.3,2558.3,455.2,2573.5,460Z"/><polygon class="cls-4" points="2580 293.5 2574 300.5 2574 329.5 2554 340.5 2551 444.6 2596 444.5 2597 307.5 2580 293.5"/><polygon class="cls-5" points="2575.1 444.6 2576.5 368 2584.5 363 2584.5 346 2597.5 344 2597.5 445 2575.1 444.6"/><path class="cls-8" d="M2414.5,447.5l3-348h-9l-7-6v-14h-25v16l-7,4v13h-9q-.45,173.55-1,347Z"/><path class="cls-8" d="M2469.5,451.5q-1-137.55-2-275h-9l-7-6v-14h-25v16l-7,4v13h-9q2,138.45,4,277Z"/><path class="cls-8" d="M2219.5,455.5q-2-156-4-312h-9l-7-6v-14h-25v16l-7,4v13h-9q1,153,2,306C2180.2,460.2,2199.8,457.8,2219.5,455.5Z"/><path class="cls-8" d="M2266.5,442.5q-.45-111-1-222h-9l-7-6v-14h-25v16l-7,4v13h-9q1,104.55,2,209Z"/><path class="cls-8" d="M1921.5,447.5q4.5-191.55,9-383h-9l-7-6v-14h-25v16l-7,4v13h-9l-6,378C1885.5,452.8,1903.5,450.2,1921.5,447.5Z"/><path class="cls-8" d="M1976.5,451.5q1.95-155,4-310h-9l-7-6v-14h-25v16l-7,4v13h-9q-1.05,146.55-2,293C1939.8,448.8,1958.2,450.2,1976.5,451.5Z"/><path class="cls-3" d="M2063,451q-1.5-183.45-3-367l-6-7V43h-16V74l-17,10V97l-17,8q1.95,171,4,342C2026.3,448.3,2044.7,449.7,2063,451Z"/><path class="cls-5" d="M2555.5,268.5c-10.7-4.3-21.3-8.7-32-13q1,112,2,224c10.7-2.3,21.3-4.7,32-7Z"/><polygon class="cls-8" points="2523.5 255.5 2495.5 271.5 2495.5 481.5 2525.5 479.5 2523.5 255.5"/></g></g></g></svg>